<?xml version="1.0" encoding="UTF-8" standalone="no"?>
<svg
   xmlns:dc="http://purl.org/dc/elements/1.1/"
   xmlns:cc="http://creativecommons.org/ns#"
   xmlns:rdf="http://www.w3.org/1999/02/22-rdf-syntax-ns#"
   xmlns:svg="http://www.w3.org/2000/svg"
   xmlns="http://www.w3.org/2000/svg"
   xmlns:sodipodi="http://sodipodi.sourceforge.net/DTD/sodipodi-0.dtd"
   xmlns:inkscape="http://www.inkscape.org/namespaces/inkscape"
   width="45"
   height="45"
   id="svg2215"
   sodipodi:version="0.32"
   inkscape:version="0.48.1 r9760"
   sodipodi:docname="activity.png"
   inkscape:output_extension="org.inkscape.output.svg.inkscape"
   version="1.1">
  <metadata
     id="metadata2232">
    <rdf:RDF>
      <cc:Work
         rdf:about="">
        <dc:format>image/svg+xml</dc:format>
        <dc:type
           rdf:resource="http://purl.org/dc/dcmitype/StillImage" />
        <dc:title></dc:title>
      </cc:Work>
    </rdf:RDF>
  </metadata>
  <defs
     id="defs2230" />
  <sodipodi:namedview
     inkscape:cy="51.691048"
     inkscape:cx="-69.369463"
     inkscape:zoom="2.8284273"
     inkscape:window-height="696"
     inkscape:window-width="1011"
     inkscape:pageshadow="2"
     inkscape:pageopacity="0.0"
     guidetolerance="10.0"
     gridtolerance="10.0"
     objecttolerance="10.0"
     borderopacity="1.0"
     bordercolor="#666666"
     pagecolor="#ffffff"
     id="base"
     inkscape:window-x="569"
     inkscape:window-y="303"
     inkscape:current-layer="svg2215"
     showgrid="false"
     inkscape:snap-page="false"
     inkscape:window-maximized="0" />
  <text
     xml:space="preserve"
     style="font-size:40px;font-style:normal;font-weight:normal;line-height:125%;letter-spacing:0px;word-spacing:0px;fill:#000000;fill-opacity:1;stroke:none;font-family:Sans"
     x="14.760854"
     y="41.110912"
     id="text3074"
     sodipodi:linespacing="125%"><tspan
       sodipodi:role="line"
       id="tspan3076" /></text>
  <text
     xml:space="preserve"
     style="font-size:14px;font-style:normal;font-weight:normal;line-height:125%;letter-spacing:0px;word-spacing:0px;fill:#000000;fill-opacity:1;stroke:none;font-family:Sans"
     x="0.75"
     y="34.3125"
     id="text2996"
     sodipodi:linespacing="125%"><tspan
       sodipodi:role="line"
       id="tspan2998"
       x="0.75"
       y="34.3125" /></text>
  <flowRoot
     xml:space="preserve"
     id="flowRoot3008"
     style="font-size:12px;font-style:normal;font-weight:normal;line-height:125%;letter-spacing:0px;word-spacing:0px;fill:#0066ff;fill-opacity:1;stroke:none;font-family:Sans"
     transform="translate(6.7175146,5.6568544)"><flowRegion
       id="flowRegion3010"><rect
         id="rect3012"
         width="75.30687"
         height="74.953316"
         x="-6.7175145"
         y="-8.7401152"
         style="font-size:12px;fill:#0066ff" /></flowRegion><flowPara
       id="flowPara3014">mind*</flowPara><flowPara
       id="flowPara3018">the </flowPara><flowPara
       id="flowPara3022">_gap</flowPara></flowRoot>  <path
     style="fill:#87cdde"
     id="path3078"
     d="m -13.361962,45.745573 c 0.178035,-0.07892 0.361638,-0.14685 0.545662,-0.211848 0.412166,-0.145845 0.842198,-0.225226 1.269615,-0.310835 0.68777,-0.142927 1.38162,-0.254099 2.0767792,-0.353956 1.0170144,-0.131971 2.0383896,-0.227133 3.0594062,-0.321904 1.2236975,-0.108056 2.4466124,-0.224661 3.6690492,-0.346075 1.2114425,-0.120599 2.42289243,-0.241143 3.63467545,-0.358278 C 2.0702898,43.725837 3.2478723,43.615581 4.4266922,43.51802 5.6572605,43.4215 6.8874273,43.320338 8.1169605,43.211403 9.4101823,43.090673 10.703512,42.9711 11.996786,42.850927 c 1.305695,-0.122047 2.61214,-0.235818 3.91861,-0.3492 1.238214,-0.10632 2.476625,-0.210178 3.714599,-0.319277 1.167288,-0.105339 2.334642,-0.209941 3.502188,-0.312383 1.089449,-0.09737 2.178498,-0.199036 3.267433,-0.301965 1.015293,-0.09845 2.029594,-0.206713 3.044012,-0.313703 0.925257,-0.09841 1.850981,-0.192371 2.776273,-0.290451 0.831341,-0.08681 1.662124,-0.178726 2.492643,-0.273042 0.750103,-0.08394 1.499471,-0.174305 2.248139,-0.27017 0.678683,-0.08544 1.35645,-0.177804 2.033667,-0.274115 0.616818,-0.08959 1.232989,-0.18378 1.847447,-0.288383 0.572394,-0.101656 1.142161,-0.215997 1.70785,-0.349954 0.56768,-0.129981 1.113867,-0.331298 1.650653,-0.553989 0.557638,-0.24039 1.099332,-0.515902 1.631268,-0.808276 1.048965,-0.597951 -0.952634,0.553328 -1.431303,0.826186 -0.09377,0.05345 0.185651,-0.110222 0.277026,-0.167683 0.295082,-0.185557 0.56925,-0.390914 0.842561,-0.606719 0.638261,-0.526463 1.204928,-1.130835 1.761976,-1.740424 0.662594,-0.73326 1.301485,-1.48737 1.927755,-2.251736 0.690287,-0.855731 1.367274,-1.721945 2.039317,-2.592029 0.69528,-0.900756 1.407191,-1.788437 2.117487,-2.677337 0.685722,-0.858505 1.375597,-1.713683 2.067231,-2.567429 0.645114,-0.797698 1.293937,-1.59237 1.946122,-2.384294 0.498912,-0.602833 0.997366,-1.206042 1.495369,-1.809627 0,0 2.094119,-0.890648 2.094119,-0.890648 l 0,0 c -0.501365,0.604659 -1.00206,1.209872 -1.504742,1.81344 -0.656175,0.792156 -1.308425,1.587532 -1.956305,2.386491 -0.694022,0.85401 -1.386567,1.709229 -2.073981,2.568574 -0.710752,0.888076 -1.423765,1.774411 -2.119931,2.67403 -0.668949,0.86938 -1.341264,1.736082 -2.026283,2.592906 -0.619144,0.766039 -1.252715,1.520355 -1.907836,2.255986 -0.548259,0.614187 -1.106276,1.222149 -1.72761,1.764142 -0.225981,0.189571 -0.312093,0.268415 -0.548668,0.441194 -0.145158,0.106014 -0.391913,0.27135 -0.548355,0.362634 -1.889127,1.102298 -1.546595,0.910476 -2.52401,1.451626 -0.538447,0.286034 -1.08414,0.560123 -1.649438,0.789732 -0.545654,0.214352 -1.101256,0.402756 -1.675161,0.527109 -0.567981,0.128065 -1.139647,0.238792 -1.713664,0.336373 -0.614189,0.10022 -1.229526,0.193312 -1.845818,0.279688 -0.675661,0.09338 -1.351837,0.182894 -2.028789,0.266459 -0.747019,0.0926 -1.49462,0.180471 -2.242895,0.262352 -0.827886,0.09164 -1.656107,0.180179 -2.484724,0.264972 -0.922297,0.09473 -1.844797,0.187463 -2.766952,0.283576 -1.012219,0.104846 -2.024391,0.210343 -3.037538,0.30593 -1.086825,0.101316 -2.173867,0.20026 -3.261244,0.295499 -1.164889,0.100696 -2.329593,0.203488 -3.494269,0.306614 -1.235633,0.10715 -2.47167,0.209415 -3.707547,0.313707 -1.305466,0.111616 -2.610722,0.225732 -3.915192,0.348533 -1.2950948,0.12034 -2.5899844,0.242828 -3.8850768,0.363169 -1.2325245,0.109135 -2.4655575,0.212086 -3.6988902,0.311652 -1.1778008,0.09971 -2.35442847,0.211595 -3.5308578,0.326288 -1.2096916,0.116756 -2.4192025,0.235386 -3.6286681,0.354458 -1.2263778,0.120757 -2.4530501,0.238442 -3.6799842,0.353418 -1.0289485,0.102276 -2.0587049,0.202901 -3.0819019,0.353925 -0.702633,0.111132 -1.403563,0.233877 -2.098543,0.386428 -0.430368,0.0932 -0.860537,0.192693 -1.270506,0.356988 -0.187935,0.07496 -0.375703,0.152327 -0.553424,0.249316 0,0 1.857614,-1.485915 1.857614,-1.485915 z"
     inkscape:connector-curvature="0" />
</svg>
